<?xml version="1.0" encoding="utf-8"?>
<!-- Generator: Adobe Illustrator 18.1.1, SVG Export Plug-In . SVG Version: 6.00 Build 0)  -->
<svg version="1.1" id="Layer_1" xmlns="http://www.w3.org/2000/svg" xmlns:xlink="http://www.w3.org/1999/xlink" x="0px" y="0px"
	 viewBox="0 40 100 21" enable-background="new 0 40 100 21" xml:space="preserve">
<g>
	<defs>
		<path id="SVGID_1_" d="M13.1,55.7c0.9,0,1.6-0.7,1.6-1.6v-8.7h-1.5c-0.4,0-0.8,0.1-1.2,0.5L8,49.8l-3.9-3.9
			c-0.9-0.9-2.5-0.3-2.6,1c0.1-3.1,2.6-5.6,5.7-5.6h11.6v12.9c0,3.1-2.6,5.7-5.7,5.7H4.5v-9.1L8,54.2l3.5-3.5v4.9H13.1z"/>
	</defs>
	<clipPath id="SVGID_2_">
		<use xlink:href="#SVGID_1_"  overflow="visible"/>
	</clipPath>
	<linearGradient id="SVGID_3_" gradientUnits="userSpaceOnUse" x1="2.2018" y1="57.6" x2="19.5573" y2="42.1337">
		<stop  offset="0" style="stop-color:#0060AE"/>
		<stop  offset="1" style="stop-color:#0094D9"/>
	</linearGradient>
	<rect x="1.4" y="41.3" clip-path="url(#SVGID_2_)" fill="url(#SVGID_3_)" width="17.3" height="18.6"/>
</g>
<path fill="#0060AE" d="M98.7,52.3c0,0.6-0.2,1.1-0.7,1.5c-0.5,0.4-1.1,0.5-1.9,0.5c-0.9,0-1.5-0.1-2-0.3v-0.8
	c0.3,0.1,0.6,0.2,1,0.3c0.4,0.1,0.7,0.1,1,0.1c0.6,0,1-0.1,1.3-0.3c0.3-0.2,0.4-0.5,0.4-0.9c0-0.3-0.1-0.5-0.2-0.6
	c-0.1-0.2-0.3-0.3-0.5-0.4c-0.2-0.1-0.6-0.3-1.1-0.5c-0.7-0.2-1.2-0.5-1.5-0.9c-0.3-0.3-0.4-0.8-0.4-1.3c0-0.6,0.2-1,0.6-1.3
	c0.4-0.3,1-0.5,1.7-0.5c0.7,0,1.4,0.1,2,0.4L98.2,48c-0.6-0.3-1.2-0.4-1.8-0.4c-0.4,0-0.8,0.1-1.1,0.3c-0.3,0.2-0.4,0.5-0.4,0.8
	c0,0.3,0,0.5,0.1,0.6c0.1,0.2,0.3,0.3,0.5,0.4c0.2,0.1,0.6,0.3,1,0.4c0.8,0.3,1.3,0.6,1.6,0.9C98.5,51.4,98.7,51.8,98.7,52.3
	 M91.2,47.6c-0.8,0-1.4,0.3-1.9,0.8c-0.5,0.5-0.7,1.3-0.7,2.2c0,1,0.2,1.7,0.7,2.2c0.4,0.5,1.1,0.8,1.9,0.8c0.5,0,1.1-0.1,1.7-0.3
	V54c-0.5,0.2-1.1,0.3-1.9,0.3c-1.1,0-1.9-0.3-2.5-1c-0.6-0.7-0.9-1.6-0.9-2.8c0-0.8,0.1-1.4,0.4-2c0.3-0.6,0.7-1,1.2-1.3
	c0.5-0.3,1.2-0.5,1.9-0.5c0.8,0,1.4,0.1,2,0.4L92.9,48C92.3,47.7,91.8,47.6,91.2,47.6z M85.2,54.2v-7.3h0.8v7.3H85.2z M70.1,50.6
	c0,1,0.2,1.7,0.6,2.2c0.4,0.5,1,0.8,1.8,0.8c0.8,0,1.4-0.3,1.8-0.8c0.4-0.5,0.6-1.3,0.6-2.3c0-1-0.2-1.7-0.6-2.2
	c-0.4-0.5-1-0.8-1.8-0.8c-0.8,0-1.4,0.3-1.8,0.8C70.3,48.8,70.1,49.6,70.1,50.6z M75.9,50.6c0,1.2-0.3,2.1-0.9,2.8
	c-0.6,0.7-1.4,1-2.5,1c-1.1,0-1.9-0.3-2.5-1c-0.6-0.7-0.9-1.6-0.9-2.8c0-1.2,0.3-2.1,0.9-2.8c0.6-0.7,1.4-1,2.5-1c1,0,1.9,0.3,2.5,1
	C75.6,48.5,75.9,49.4,75.9,50.6z M64.1,50.5h1.2c0.6,0,1-0.1,1.3-0.4c0.3-0.2,0.4-0.6,0.4-1.1c0-0.5-0.1-0.8-0.4-1
	c-0.3-0.2-0.7-0.3-1.4-0.3h-1.1V50.5z M64.1,51.2v3h-0.8v-7.3h2c0.9,0,1.6,0.2,2,0.5c0.4,0.3,0.6,0.9,0.6,1.5c0,1-0.5,1.6-1.5,2
	l2,3.3h-1l-1.8-3H64.1z M59.9,54.2H59v-6.5h-2.3v-0.8h5.5v0.8h-2.3V54.2z M55.3,51.1L54.1,48l-1.2,3.1H55.3z M56.4,54.2l-0.9-2.3h-3
	l-0.9,2.3h-0.8l2.8-7.3h0.8l2.8,7.3H56.4z M49.9,54.2H49v-3.4h-3.8v3.4h-0.8v-7.3h0.8V50H49v-3.1h0.8V54.2z M41,47.6
	c-0.8,0-1.4,0.3-1.9,0.8c-0.5,0.5-0.7,1.3-0.7,2.2c0,1,0.2,1.7,0.7,2.2c0.4,0.5,1.1,0.8,1.9,0.8c0.5,0,1.1-0.1,1.7-0.3V54
	c-0.5,0.2-1.1,0.3-1.9,0.3c-1.1,0-1.9-0.3-2.5-1c-0.6-0.7-0.9-1.6-0.9-2.8c0-0.8,0.1-1.4,0.4-2c0.3-0.6,0.7-1,1.2-1.3
	c0.5-0.3,1.2-0.5,1.9-0.5c0.8,0,1.4,0.1,2,0.4L42.6,48C42.1,47.7,41.5,47.6,41,47.6z M36.2,54.2h-4.1v-7.3h4.1v0.8H33V50h3v0.7h-3
	v2.7h3.2V54.2z M82.5,53v-6.1h0.8v7.3h-1l-3.9-6.1v6.1h-0.8v-7.3h1L82.5,53z M26.2,54.2l-2.4-6.4v6.4H23v-7.3h1.3l2.3,6h0l2.3-6h1.3
	v7.3h-0.8l0-6.4l-2.5,6.4H26.2z"/>
</svg>
